<?xml version="1.0" encoding="utf-8"?>
<!-- Generator: Adobe Illustrator 17.1.0, SVG Export Plug-In . SVG Version: 6.00 Build 0)  -->
<!DOCTYPE svg PUBLIC "-//W3C//DTD SVG 1.1//EN" "http://www.w3.org/Graphics/SVG/1.1/DTD/svg11.dtd">
<svg version="1.1" id="Layer_1" xmlns="http://www.w3.org/2000/svg" xmlns:xlink="http://www.w3.org/1999/xlink" x="0px" y="0px"
	 viewBox="0 0 512 512" enable-background="new 0 0 512 512" xml:space="preserve">
<circle fill="#6B919D" cx="256" cy="256" r="250"/>
<g id="wordmark">
	<path id="h" fill="#FFFFFF" d="M108.8,240.5c8.3-12.9,18.8-20,32.4-20c11.9,0,21.3,6.3,21.3,18.2c0,11.1-13.2,42.5-13.2,48.6
		c0,3.5,1.8,4.8,5,4.8c2.2,0,3.8-0.3,6.1-1.2l-3.3,12.2c-4.5,1.5-9.4,2.2-14.2,2.2c-10.7,0-17-4.1-17-14.2
		c0-9.4,12.9-39.5,12.9-47.6c0-5.8-4-8.7-9.1-8.7c-13.6,0-25.3,19.5-37.7,68.4H70l25-92.4c1-3.8,0.7-5-1.5-5h-8.6l3.5-12.4h14.4
		c8.1,0,15.9-0.8,19.7-1.7L108.8,240.5z"/>
	<path id="a" fill="#FFFFFF" d="M170.6,275.1c0-27.8,18.2-54.5,44.8-54.5c12.4,0,21,6.6,23.8,17.7l4.3-15.5h8.3
		c5.9,0,10.6-0.7,13.9-1.7l-12.6,47.6c-2.1,8.1-4.3,14.7-4.3,18.2c0,3.8,2,5.3,5.1,5.3c2.1,0,3.6-0.3,6.1-1.2l-3.3,12.2
		c-4.5,1.2-8.6,2.2-13.6,2.2c-11.4,0-17.5-5-17.5-14.2c-6.6,8.4-15.9,14.2-26.8,14.2C181.7,305.3,170.6,292.6,170.6,275.1z
		 M234.3,250.6c0-9.9-6.1-16.5-15-16.5c-14.9,0-26.6,19.8-26.6,40.7c0,10.7,6.3,17,15.2,17C222.5,291.8,234.3,270.3,234.3,250.6z"/>
	<path id="r" fill="#FFFFFF" d="M308.9,236.1c5.8-9.8,13.9-16,23.8-16c10.3,0,16.7,6.4,17,15.7c0.3,11.4-6.6,21.2-16.4,21.2
		c-7.1,0-11.2-4.1-11.4-9.9c-0.2-5.1,3.8-10.2,9.6-11.1c-1-1.5-3.5-2.5-5.9-2.5c-13.4,0-20,15.2-27.6,43.3l-7.1,26.4h-22.2
		l17.4-63.1c1-3.8,0.5-5-1.5-5h-9.9l3.3-12.4h15.4c8.1,0,15.7-0.8,19.7-1.7L308.9,236.1z"/>
	<path id="p" fill="#FFFFFF" d="M334,319.2h7.3c1.8,0,3-0.7,4-4.3l20.5-74.9c1-3.8,0.5-5-1.5-5h-9.4l3.3-12.4H373
		c8.1,0,15.7-0.8,19.7-1.7l-3.3,12.1c6.3-7.4,14.7-12.6,24.6-12.6c18.2,0,28.8,13.2,28.8,31.1c0,28.1-16.5,53.7-43.3,53.7
		c-13.2,0-21.8-6.9-24.6-17.5l-7.3,27.1c-1,3.6-0.2,4.3,1.7,4.3h8.4l-3.3,12.4h-43.6L334,319.2z M420.6,251.1
		c-0.2-10.7-6.3-17-15.2-17c-14.9,0-25.9,21.5-25.8,41.2c0,8.4,5.6,16.4,15.2,16.4C408.8,291.6,420.7,271.9,420.6,251.1z"/>
</g>
</svg>
